<svg width="44" height="38" viewBox="0 0 44 38" fill="none" xmlns="http://www.w3.org/2000/svg">
<mask id="mask0_1_171" style="mask-type:alpha" maskUnits="userSpaceOnUse" x="0" y="0" width="44" height="38">
<rect width="44" height="38" fill="#D9D9D9"/>
</mask>
<g mask="url(#mask0_1_171)">
<path d="M20.2111 33.25V29.8458C18.5916 29.5292 17.1937 28.9222 16.0173 28.025C14.8409 27.1278 13.9777 25.8611 13.4277 24.225L16.8194 23.0375C17.2777 24.3042 17.9576 25.2674 18.859 25.9271C19.7604 26.5868 20.9444 26.9167 22.4111 26.9167C23.6638 26.9167 24.7257 26.6726 25.5965 26.1844C26.4673 25.6962 26.9027 24.9375 26.9027 23.9083C26.9027 22.9847 26.5666 22.2524 25.8944 21.7115C25.2222 21.1705 23.6638 20.5569 21.2194 19.8708C18.5916 19.1583 16.7888 18.3073 15.8111 17.3177C14.8333 16.3281 14.3444 15.1208 14.3444 13.6958C14.3444 11.9806 14.9861 10.6479 16.2694 9.69792C17.5527 8.74792 18.8666 8.20694 20.2111 8.075V4.75H23.8777V8.075C25.4055 8.28611 26.6659 8.76771 27.659 9.51979C28.652 10.2719 29.3777 11.1889 29.8361 12.2708L26.4444 13.5375C26.0777 12.6931 25.5583 12.0597 24.8861 11.6375C24.2138 11.2153 23.2972 11.0042 22.1361 11.0042C20.7916 11.0042 19.768 11.2615 19.0652 11.776C18.3625 12.2906 18.0111 12.9306 18.0111 13.6958C18.0111 14.5667 18.4694 15.2528 19.3861 15.7542C20.3027 16.2556 21.8916 16.7833 24.1527 17.3375C26.2611 17.8653 27.8576 18.7031 28.9423 19.851C30.027 20.999 30.5694 22.325 30.5694 23.8292C30.5694 25.7028 29.9277 27.1278 28.6444 28.1042C27.3611 29.0806 25.7722 29.6875 23.8777 29.925V33.25H20.2111Z" fill="white"/>
</g>
</svg>
