<svg width="80" height="80" viewBox="0 0 80 80" fill="none" xmlns="http://www.w3.org/2000/svg">
<g filter="url(#filter0_d_1_53)">
<rect x="4" width="72" height="72" rx="9" fill="#845EC0"/>
</g>
<path d="M50.375 21.8333H44.3333C44.3333 19.1674 42.1659 17 39.5 17C36.8341 17 34.6667 19.1674 34.6667 21.8333H28.625C26.6237 21.8333 25 23.457 25 25.4583V52.0417C25 54.043 26.6237 55.6667 28.625 55.6667H50.375C52.3763 55.6667 54 54.043 54 52.0417V25.4583C54 23.457 52.3763 21.8333 50.375 21.8333ZM39.5 20.0208C40.5044 20.0208 41.3125 20.8289 41.3125 21.8333C41.3125 22.8378 40.5044 23.6458 39.5 23.6458C38.4956 23.6458 37.6875 22.8378 37.6875 21.8333C37.6875 20.8289 38.4956 20.0208 39.5 20.0208ZM46.75 42.9792C46.75 43.3115 46.4781 43.5833 46.1458 43.5833H41.9167V47.8125C41.9167 48.1448 41.6448 48.4167 41.3125 48.4167H37.6875C37.3552 48.4167 37.0833 48.1448 37.0833 47.8125V43.5833H32.8542C32.5219 43.5833 32.25 43.3115 32.25 42.9792V39.3542C32.25 39.0219 32.5219 38.75 32.8542 38.75H37.0833V34.5208C37.0833 34.1885 37.3552 33.9167 37.6875 33.9167H41.3125C41.6448 33.9167 41.9167 34.1885 41.9167 34.5208V38.75H46.1458C46.4781 38.75 46.75 39.0219 46.75 39.3542V42.9792ZM46.75 28.4792C46.75 28.8115 46.4781 29.0833 46.1458 29.0833H32.8542C32.5219 29.0833 32.25 28.8115 32.25 28.4792V27.2708C32.25 26.9385 32.5219 26.6667 32.8542 26.6667H46.1458C46.4781 26.6667 46.75 26.9385 46.75 27.2708V28.4792Z" fill="white"/>
<defs>
<filter id="filter0_d_1_53" x="0" y="0" width="80" height="80" filterUnits="userSpaceOnUse" color-interpolation-filters="sRGB">
<feFlood flood-opacity="0" result="BackgroundImageFix"/>
<feColorMatrix in="SourceAlpha" type="matrix" values="0 0 0 0 0 0 0 0 0 0 0 0 0 0 0 0 0 0 127 0" result="hardAlpha"/>
<feOffset dy="4"/>
<feGaussianBlur stdDeviation="2"/>
<feComposite in2="hardAlpha" operator="out"/>
<feColorMatrix type="matrix" values="0 0 0 0 0 0 0 0 0 0 0 0 0 0 0 0 0 0 0.25 0"/>
<feBlend mode="normal" in2="BackgroundImageFix" result="effect1_dropShadow_1_53"/>
<feBlend mode="normal" in="SourceGraphic" in2="effect1_dropShadow_1_53" result="shape"/>
</filter>
</defs>
</svg>
