<svg width="25" height="24" viewBox="0 0 25 24" fill="none" xmlns="http://www.w3.org/2000/svg">
<mask id="mask0_1_134" style="mask-type:alpha" maskUnits="userSpaceOnUse" x="0" y="0" width="25" height="24">
<rect x="0.5" width="24" height="24" fill="#D9D9D9"/>
</mask>
<g mask="url(#mask0_1_134)">
<path d="M12.5017 21.5C11.1877 21.5 9.95267 21.2512 8.7965 20.7535C7.64033 20.256 6.63467 19.5807 5.7795 18.7275C4.92433 17.8745 4.24725 16.8714 3.74825 15.7182C3.24942 14.5651 3 13.3321 3 12.0192C3 11.3594 3.06542 10.7112 3.19625 10.0745C3.32692 9.43767 3.51792 8.81667 3.76925 8.2115L4.9345 9.377C4.79483 9.81033 4.6875 10.2448 4.6125 10.6803C4.5375 11.1159 4.5 11.5558 4.5 12C4.5 14.2333 5.275 16.125 6.825 17.675C8.375 19.225 10.2667 20 12.5 20C14.7333 20 16.625 19.225 18.175 17.675C19.725 16.125 20.5 14.2333 20.5 12C20.5 9.76667 19.725 7.875 18.175 6.325C16.625 4.775 14.7333 4 12.5 4C12.05 4 11.6093 4.0375 11.178 4.1125C10.7465 4.1875 10.3193 4.29483 9.89625 4.4345L8.74625 3.28475C9.34242 3.02958 9.94333 2.835 10.549 2.701C11.1548 2.567 11.7859 2.5 12.4423 2.5C13.7629 2.5 15.004 2.74808 16.1655 3.24425C17.327 3.74042 18.3385 4.41767 19.2 5.276C20.0615 6.13433 20.7435 7.14108 21.246 8.29625C21.7487 9.45142 22 10.6857 22 11.999C22 13.3125 21.7507 14.5473 21.252 15.7035C20.7533 16.8597 20.0766 17.8653 19.2218 18.7205C18.3669 19.5757 17.3617 20.2528 16.206 20.7518C15.0503 21.2506 13.8156 21.5 12.5017 21.5ZM6.2115 6.90375C5.88467 6.90375 5.60425 6.78683 5.37025 6.553C5.13625 6.319 5.01925 6.0385 5.01925 5.7115C5.01925 5.38467 5.13625 5.10425 5.37025 4.87025C5.60425 4.63625 5.88467 4.51925 6.2115 4.51925C6.5385 4.51925 6.819 4.63625 7.053 4.87025C7.28683 5.10425 7.40375 5.38467 7.40375 5.7115C7.40375 6.0385 7.28683 6.319 7.053 6.553C6.819 6.78683 6.5385 6.90375 6.2115 6.90375Z" fill="#CED4DA"/>
</g>
</svg>
