<svg width="25" height="24" viewBox="0 0 25 24" fill="none" xmlns="http://www.w3.org/2000/svg">
<mask id="mask0_1_119" style="mask-type:alpha" maskUnits="userSpaceOnUse" x="0" y="0" width="25" height="24">
<rect x="0.5" width="24" height="24" fill="#D9D9D9"/>
</mask>
<g mask="url(#mask0_1_119)">
<path d="M12.5017 21.5C11.1877 21.5 9.95267 21.2507 8.7965 20.752C7.64033 20.2533 6.63467 19.5766 5.7795 18.7218C4.92433 17.8669 4.24725 16.8617 3.74825 15.706C3.24942 14.5503 3 13.3156 3 12.0017C3 10.6877 3.24942 9.45267 3.74825 8.2965C4.24692 7.14033 4.92375 6.13467 5.77875 5.2795C6.63375 4.42433 7.63917 3.74725 8.795 3.24825C9.95083 2.74942 11.1858 2.5 12.5 2.5C13.5533 2.5 14.55 2.65833 15.49 2.975C16.43 3.29167 17.2923 3.73333 18.077 4.3L16.9923 5.40975C16.3461 4.96475 15.6462 4.61858 14.8925 4.37125C14.1388 4.12375 13.3413 4 12.5 4C10.2833 4 8.39583 4.77917 6.8375 6.3375C5.27917 7.89583 4.5 9.78333 4.5 12C4.5 14.2167 5.27917 16.1042 6.8375 17.6625C8.39583 19.2208 10.2833 20 12.5 20C14.7167 20 16.6042 19.2208 18.1625 17.6625C19.7208 16.1042 20.5 14.2167 20.5 12C20.5 11.6487 20.4769 11.3013 20.4307 10.9578C20.3846 10.6143 20.3153 10.2802 20.223 9.95575L21.4345 8.73475C21.6178 9.24875 21.7579 9.77758 21.8547 10.3212C21.9516 10.8647 22 11.4243 22 12C22 13.3142 21.7507 14.5492 21.252 15.705C20.7533 16.8608 20.0766 17.8663 19.2218 18.7213C18.3669 19.5763 17.3617 20.2531 16.206 20.7518C15.0503 21.2506 13.8156 21.5 12.5017 21.5ZM11.0808 16.2538L7.177 12.35L8.23075 11.2963L11.0808 14.1463L20.9462 4.2655L22 5.31925L11.0808 16.2538Z" fill="#2196F3"/>
</g>
</svg>
